<svg width="1217" height="744" viewBox="0 0 1217 744" fill="none" xmlns="http://www.w3.org/2000/svg">
<path fill-rule="evenodd" clip-rule="evenodd" d="M536.437 381.013L530.362 468.358L1093.63 263.345L1099.7 176L536.437 381.013Z" fill="#4346DE"/>
<path fill-rule="evenodd" clip-rule="evenodd" d="M309.979 596.826L311.343 681.464L749.276 522.069L747.911 437.432L309.979 596.826Z" fill="#55C3F5"/>
<path fill-rule="evenodd" clip-rule="evenodd" d="M360.47 301.404L354.362 388.762L542.299 320.358L548.408 233L360.47 301.404Z" fill="#D3DDEC"/>
<path fill-rule="evenodd" clip-rule="evenodd" d="M187.47 378.404L181.362 465.762L369.299 397.358L375.408 310L187.47 378.404Z" fill="#E0E1FF"/>
<path fill-rule="evenodd" clip-rule="evenodd" d="M618.47 615.404L612.362 702.761L800.299 634.358L806.408 547L618.47 615.404Z" fill="#D2F1FF"/>
<path d="M1020.3 552.466L1014.35 637.64L828.467 705.295L834.422 620.122L1020.3 552.466Z" stroke="#D3DDEC" stroke-width="2"/>
<g filter="url(#filter0_d_115_10644)">
<path d="M227.967 567.965L238.689 537.321L208.68 546.66C208.057 546.853 207.562 547.331 207.346 547.948L196.967 577.611L227.967 567.965Z" fill="#D3DDEC" fill-opacity="0.8"/>
<path fill-rule="evenodd" clip-rule="evenodd" d="M252.085 593.358L227.733 568.14L238.566 537.611L262.034 561.913C262.577 562.475 262.753 563.296 262.49 564.035L259.548 572.328L252.085 593.358Z" fill="#D3DDEC" fill-opacity="0.48"/>
<path fill-rule="evenodd" clip-rule="evenodd" d="M197.053 577.7L227.941 567.939L252.294 593.157L222.551 602.556C221.823 602.755 221.045 602.545 220.52 602.001L197.053 577.7Z" fill="#F8FBFF"/>
</g>
<g filter="url(#filter1_d_115_10644)">
<path d="M122.104 578.629L31.9211 545.42L57.9039 634.751C58.4403 636.606 59.8278 638.094 61.6444 638.763L148.941 670.909L122.104 578.629Z" fill="url(#paint0_linear_115_10644)" fill-opacity="0.32"/>
<path fill-rule="evenodd" clip-rule="evenodd" d="M146.183 556.773L121.292 579.984L31.7457 546.181L56.6368 522.97L146.183 556.773Z" fill="url(#paint1_linear_115_10644)" fill-opacity="0.48"/>
<path fill-rule="evenodd" clip-rule="evenodd" d="M149.019 671.213L121.544 579.527L146.435 556.316L173.91 648.002L149.019 671.213Z" fill="url(#paint2_linear_115_10644)" fill-opacity="0.64"/>
</g>
<defs>
<filter id="filter0_d_115_10644" x="172.967" y="513.321" width="161.644" height="161.308" filterUnits="userSpaceOnUse" color-interpolation-filters="sRGB">
<feFlood flood-opacity="0" result="BackgroundImageFix"/>
<feColorMatrix in="SourceAlpha" type="matrix" values="0 0 0 0 0 0 0 0 0 0 0 0 0 0 0 0 0 0 127 0" result="hardAlpha"/>
<feOffset dx="24" dy="24"/>
<feGaussianBlur stdDeviation="24"/>
<feColorMatrix type="matrix" values="0 0 0 0 0.0941176 0 0 0 0 0.137255 0 0 0 0 0.203922 0 0 0 0.04 0"/>
<feBlend mode="normal" in2="BackgroundImageFix" result="effect1_dropShadow_115_10644"/>
<feBlend mode="normal" in="SourceGraphic" in2="effect1_dropShadow_115_10644" result="shape"/>
</filter>
<filter id="filter1_d_115_10644" x="7.74609" y="498.97" width="238.163" height="244.243" filterUnits="userSpaceOnUse" color-interpolation-filters="sRGB">
<feFlood flood-opacity="0" result="BackgroundImageFix"/>
<feColorMatrix in="SourceAlpha" type="matrix" values="0 0 0 0 0 0 0 0 0 0 0 0 0 0 0 0 0 0 127 0" result="hardAlpha"/>
<feOffset dx="24" dy="24"/>
<feGaussianBlur stdDeviation="24"/>
<feColorMatrix type="matrix" values="0 0 0 0 0.0941176 0 0 0 0 0.137255 0 0 0 0 0.203922 0 0 0 0.04 0"/>
<feBlend mode="normal" in2="BackgroundImageFix" result="effect1_dropShadow_115_10644"/>
<feBlend mode="normal" in="SourceGraphic" in2="effect1_dropShadow_115_10644" result="shape"/>
</filter>
<linearGradient id="paint0_linear_115_10644" x1="176.632" y1="753.719" x2="234.797" y2="699.478" gradientUnits="userSpaceOnUse">
<stop stop-color="#53C0F1" stop-opacity="0.24"/>
<stop offset="1" stop-color="#D2F1FF"/>
</linearGradient>
<linearGradient id="paint1_linear_115_10644" x1="33.1687" y1="573.187" x2="121.366" y2="602.775" gradientUnits="userSpaceOnUse">
<stop stop-color="#25B2F2" stop-opacity="0.64"/>
<stop offset="1" stop-color="#85D4F8"/>
</linearGradient>
<linearGradient id="paint2_linear_115_10644" x1="116.811" y1="646.248" x2="178.222" y2="644.897" gradientUnits="userSpaceOnUse">
<stop stop-color="#25B2F2"/>
<stop offset="1" stop-color="#85D4F8"/>
</linearGradient>
</defs>
</svg>
